<svg fill="currentColor" fill-rule="evenodd" height="1em" style="flex:none;line-height:1" viewBox="0 0 24 24" width="1em" xmlns="http://www.w3.org/2000/svg"><title>Minimax</title><path d="M 11.4300 3.9200 C 11.4430 3.6508 11.2441 3.2792 11.0129 3.1408 C 10.7817 3.0023 10.3603 3.0023 10.1291 3.1408 C 9.8979 3.2792 9.6990 3.6508 9.7120 3.9200 L 9.7120 18.1560 C 9.6945 18.9365 8.4942 20.1103 7.7135 20.1103 C 6.9328 20.1103 5.7325 18.9365 5.7150 18.1560 L 5.7150 9.0220 C 5.7280 8.7528 5.5291 8.3812 5.2979 8.2428 C 5.0667 8.1043 4.6453 8.1043 4.4141 8.2428 C 4.1829 8.3812 3.9840 8.7528 3.9970 9.0220 L 3.9970 12.8920 C 3.9795 13.6725 2.7792 14.8463 1.9985 14.8463 C 1.2178 14.8463 0.0175 13.6725 0.0000 12.8920 L 0.0000 11.4900 C 0.0093 11.2689 0.3482 10.9439 0.5695 10.9439 C 0.7908 10.9439 1.1297 11.2689 1.1390 11.4900 L 1.1390 12.8940 C 1.1504 13.2285 1.6638 13.7247 1.9985 13.7247 C 2.3332 13.7247 2.8466 13.2285 2.8580 12.8940 L 2.8580 9.0220 C 2.8755 8.2415 4.0758 7.0677 4.8565 7.0677 C 5.6372 7.0677 6.8375 8.2415 6.8550 9.0220 L 6.8550 18.1560 C 6.8664 18.4905 7.3798 18.9867 7.7145 18.9867 C 8.0492 18.9867 8.5626 18.4905 8.5740 18.1560 L 8.5740 3.9200 C 8.5740 3.1345 9.7865 1.9220 10.5720 1.9220 C 11.3575 1.9220 12.5700 3.1345 12.5700 3.9200 L 12.5700 15.7080 C 12.5775 15.8859 12.4453 16.1303 12.2924 16.2215 C 12.1394 16.3127 11.8616 16.3127 11.7086 16.2215 C 11.5557 16.1303 11.4235 15.8859 11.4310 15.7080 Z M 22.0020 7.0250 C 21.2162 7.0254 20.0042 8.2362 20.0030 9.0220 L 20.0030 16.6520 C 19.9869 16.9848 19.4772 17.4705 19.1440 17.4705 C 18.8108 17.4705 18.3011 16.9848 18.2850 16.6520 L 18.2850 3.9230 C 18.2675 3.1425 17.0672 1.9687 16.2865 1.9687 C 15.5058 1.9687 14.3055 3.1425 14.2880 3.9230 L 14.2880 20.0830 C 14.2766 20.4175 13.7632 20.9137 13.4285 20.9137 C 13.0938 20.9137 12.5804 20.4175 12.5690 20.0830 L 12.5690 18.0800 C 12.5796 17.9008 12.4483 17.6511 12.2947 17.5583 C 12.1411 17.4655 11.8589 17.4655 11.7053 17.5583 C 11.5517 17.6511 11.4204 17.9008 11.4310 18.0800 L 11.4310 20.0800 C 11.4310 20.8655 12.6435 22.0780 13.4290 22.0780 C 14.2145 22.0780 15.4270 20.8655 15.4270 20.0800 L 15.4270 3.9200 C 15.4384 3.5855 15.9518 3.0893 16.2865 3.0893 C 16.6212 3.0893 17.1346 3.5855 17.1460 3.9200 L 17.1460 16.6500 C 17.1706 17.4281 18.3655 18.5858 19.1440 18.5858 C 19.9225 18.5858 21.1174 17.4281 21.1420 16.6500 L 21.1420 9.0230 C 21.1420 8.7595 21.3438 8.4100 21.5720 8.2782 C 21.8002 8.1464 22.2038 8.1464 22.4320 8.2782 C 22.6602 8.4100 22.8620 8.7595 22.8620 9.0230 L 22.8620 15.7090 C 22.8750 15.9287 23.2110 16.2453 23.4310 16.2453 C 23.6510 16.2453 23.9870 15.9287 24.0000 15.7090 L 24.0000 9.0220 C 23.9988 8.2363 22.7877 7.0258 22.0020 7.0250"></path></svg>